<svg xmlns="http://www.w3.org/2000/svg" width="58" height="58" viewBox="0 0 58 58">
  <g id="email" transform="translate(-0.001)">
    <g id="Group_15" data-name="Group 15" transform="translate(0.001)">
      <path id="Path_5" data-name="Path 5" d="M29,0A29,29,0,1,0,58,29,29,29,0,0,0,29,0Zm0,10.186,17.161,10.7H11.84Zm17.375,27.79h0a3.107,3.107,0,0,1-3.107,3.107H14.735a3.107,3.107,0,0,1-3.107-3.107V21.568a3.091,3.091,0,0,1,.049-.531l16.4,10.224c.02.013.042.021.062.033l.066.035a1.721,1.721,0,0,0,.357.139l.038.008a1.769,1.769,0,0,0,.4.051h0a1.737,1.737,0,0,0,.4-.051l.038-.008a1.738,1.738,0,0,0,.357-.139l.066-.035c.02-.012.042-.02.062-.033l16.4-10.224a3.087,3.087,0,0,1,.049.531V37.976Z" transform="translate(-0.001)" fill="#fff"/>
    </g>
  </g>
</svg>
