<svg xmlns="http://www.w3.org/2000/svg" width="58" height="58" viewBox="0 0 58 58">
  <path id="Subtraction_1" data-name="Subtraction 1" d="M29,58A29.007,29.007,0,0,1,17.712,2.279,29.007,29.007,0,0,1,40.288,55.721,28.819,28.819,0,0,1,29,58ZM20.754,15a1.322,1.322,0,0,0-.958.419L15.814,19.4a2.237,2.237,0,0,0-.509.7,2.91,2.91,0,0,0-.269.853c0,.04-.01.241-.03.6a7.4,7.4,0,0,0,.12,1.482,15.342,15.342,0,0,0,.569,2.245,18.829,18.829,0,0,0,1.257,2.9,28.252,28.252,0,0,0,2.215,3.488,33.053,33.053,0,0,0,3.473,3.952,31.325,31.325,0,0,0,4.97,4.191,26.3,26.3,0,0,0,4.177,2.29,14.064,14.064,0,0,0,3.113.958,13.906,13.906,0,0,0,1.841.194c.164,0,.292,0,.39-.014s.158-.015.179-.015a2.91,2.91,0,0,0,.853-.269,2.25,2.25,0,0,0,.7-.509L42.848,38.5a1.371,1.371,0,0,0,.419-1.2,1.512,1.512,0,0,0-.749-.988L36.741,32.9h-.03a1.574,1.574,0,0,0-.808-.179,1.84,1.84,0,0,0-1.257.479l-1.706,1.736a.5.5,0,0,1-.2.105.717.717,0,0,1-.194.045l-.374-.075A4.675,4.675,0,0,1,31.1,34.58a13.913,13.913,0,0,1-1.751-1.122,19.854,19.854,0,0,1-2.4-2.141,19.439,19.439,0,0,1-2.125-2.38,13.2,13.2,0,0,1-1.108-1.751,5.427,5.427,0,0,1-.539-1.437.742.742,0,0,1,.045-.224.509.509,0,0,1,.1-.2L24.8,23.862A1.871,1.871,0,0,0,25.3,22.9a1.462,1.462,0,0,0-.149-1.048l-3.2-6.078a2.107,2.107,0,0,0-.509-.554A1.124,1.124,0,0,0,20.754,15Z" fill="#fff"/>
</svg>
